{"title":"Brick 2005 DVD Rip (Shy_Rage)","uid":6648576,"size":734001757,"categoryP":"video","categoryS":"movies","magnet":"?xt=urn:btih:ad177cad75cd234ebf8a90328362a3b93a984975&amp;dn=Brick+2005+DVD+Rip+%28Shy_Rage%29&amp;tr=udp%3A%2F%2Ftracker.openbittorrent.com%3A80&amp;tr=udp%3A%2F%2Fopen.demonii.com%3A1337&amp;tr=udp%3A%2F%2Ftracker.coppersurfer.tk%3A6969&amp;tr=udp%3A%2F%2Fexodus.desync.com%3A6969","seeders":0,"leechers":0,"uploader":"Shy_Rage","files":-1,"time":1315045164,"description":"==========================================\n==========================================\n\nPLEASE SEED MY TORRENTS AFTER DOWNLOADING \nTHEM, AT LEAST UNTIL THE RATIO REACHES 1.000...\n\nThis encourages me to upload more torrents...\n\n==========================================\n==========================================\n\n\n~*~*~*~*~*~Brick 2005 DVD Rip (Shy_Rage)~*~*~*~*~*~\n\n\nMOVIE INFO: - \n\n\nIMDB Ratings: - 7.5/10\n\nIMDB ID: - http://www.imdb.com/title/tt0393109/\n\n\nPLOT: - A teenage loner pushes his way into the underworld of a high school crime ring to investigate the disappearance of his ex-girlfriend.\n\n\nDirector: Rian Johnson\n\nWriter: Rian Johnson\n\n\n\nCAST: -\n\nJoseph Gordon-Levitt\t ...\tBrendan\n\nNora Zehetner    \t ...\tLaura\n\nLukas Haas\t         ...\tThe Pin\n\nNoah Fleiss\t         ...\tTugger\n\nMatt O'Leary     \t ...\tThe Brain\n\nEmilie de Ravin  \t ...\tEmily (as Emilie De Ravin)\n\nNoah Segan\t         ...\tDode\n\nRichard Roundtree        ...\tAssistant V.P. Trueman\n\nMeagan Good\t         ...\tKara\n\n\n~*~*~*~*~*~*~*~*~*~*~*~*~*~*~*~*~*~*~*~*~*~*~*~\n\n\n\n\n=========================================\n\n*****************************************\n\n=========================================\n\nGeneral\n\nComplete name                    : Brick.mp4\nFormat                           : MPEG-4\nFormat profile                   : Apple audio with iTunes info\nCodec ID                         : M4A \nFile size                        : 700 MiB\nDuration                         : 1h 42mn\nOverall bit rate                 : 954 Kbps\n\n\n\nVideo\n\nID                               : 2\nFormat                           : AVC\nFormat/Info                      : Advanced Video Codec\nFormat profile                   : &lt;a class=&quot;__cf_email__&quot; href=&quot;/cdn-cgi/l/email-protection&quot; data-cfemail=&quot;b2ffd3dbdcf2fe869c83&quot;&gt;[email&amp;#160;protected]&lt;/a&gt;&lt;script data-cfhash='f9e31' type=&quot;text/javascript&quot;&gt;\n/* &lt;![CDATA[ */!function(){try{var t=&quot;currentScript&quot;in document?document.currentScript:function(){for(var t=document.getElementsByTagName(&quot;script&quot;),e=t.length;e--;)if(t[e].getAttribute(&quot;data-cfhash&quot;))return t[e]}();if(t&amp;&amp;t.previousSibling){var e,r,n,i,c=t.previousSibling,a=c.getAttribute(&quot;data-cfemail&quot;);if(a){for(e=&quot;&quot;,r=parseInt(a.substr(0,2),16),n=2;a.length-n;n+=2)i=parseInt(a.substr(n,2),16)^r,e+=String.fromCharCode(i);e=document.createTextNode(e),c.parentNode.replaceChild(e,c)}t.parentNode.removeChild(t);}}catch(u){}}()/* ]]&gt; */&lt;/script&gt;\nFormat settings, CABAC           : Yes\nFormat settings, ReFrames        : 5 frames\nCodec ID                         : avc1\nCodec ID/Info                    : Advanced Video Coding\nDuration                         : 1h 42mn\nBit rate                         : 877 Kbps\nMaximum bit rate                 : 7 300 Kbps\nWidth                            : 704 pixels\nHeight                           : 400 pixels\nDisplay aspect ratio             : 16:9\nFrame rate mode                  : Constant\nFrame rate                       : 25.000 fps\nColor space                      : YUV\nChroma subsampling               : 4:2:0\nBit depth                        : 8 bits\nScan type                        : Progressive\nBits/(Pixel*Frame)               : 0.125\nStream size                      : 644 MiB (92%)\nWriting library                  : x264 core 59\n\n\nAudio\n\nID                               : 1\nFormat                           : AAC\nFormat/Info                      : Advanced Audio Codec\nFormat profile                   : LC\nCodec ID                         : 40\nDuration                         : 1h 42mn\nBit rate mode                    : Variable\nBit rate                         : 72.0 Kbps\nMaximum bit rate                 : 93.2 Kbps\nChannel(s)                       : 2 channels\nChannel positions                : Front: L R\nSampling rate                    : 44.1 KHz\nCompression mode                 : Lossy\nStream size                      : 53.8 MiB (8%)\n\n=========================================\n\n*****************************************\n\n=========================================\n\n\nPlease Seed and Rate My Torrents!! Thanks :)","torrent":{"xt":"urn:btih:ad177cad75cd234ebf8a90328362a3b93a984975","amp;dn":"Brick+2005+DVD+Rip+%28Shy_Rage%29","amp;tr":["udp%3A%2F%2Ftracker.openbittorrent.com%3A80","udp%3A%2F%2Fopen.demonii.com%3A1337","udp%3A%2F%2Ftracker.coppersurfer.tk%3A6969","udp%3A%2F%2Fexodus.desync.com%3A6969"],"infoHash":"ad177cad75cd234ebf8a90328362a3b93a984975","infoHashBuffer":{"type":"Buffer","data":[173,23,124,173,117,205,35,78,191,138,144,50,131,98,163,185,58,152,73,117]},"announce":[],"urlList":[]}}